<?xml version="1.0" encoding="UTF-8"?>
<svg width="11px" height="15px" viewBox="0 0 11 15" version="1.1" xmlns="http://www.w3.org/2000/svg" xmlns:xlink="http://www.w3.org/1999/xlink">
    <!-- Generator: Sketch 46.2 (44496) - http://www.bohemiancoding.com/sketch -->
    <title>chevron-right - FontAwesome</title>
    <desc>Created with Sketch.</desc>
    <defs></defs>
    <g id="Page-1" stroke="none" stroke-width="1" fill="none" fill-rule="evenodd">
        <g id="Posts-Planned" transform="translate(-183.000000, -323.000000)" fill="#F5F5F5">
            <path d="M192.883929,331.116071 L186.258929,337.741071 C186.145833,337.854167 186.011906,337.910714 185.857143,337.910714 C185.70238,337.910714 185.568453,337.854167 185.455357,337.741071 L183.973214,336.258929 C183.860118,336.145833 183.803571,336.011906 183.803571,335.857143 C183.803571,335.70238 183.860118,335.568453 183.973214,335.455357 L188.714286,330.714286 L183.973214,325.973214 C183.860118,325.860118 183.803571,325.726191 183.803571,325.571429 C183.803571,325.416666 183.860118,325.282739 183.973214,325.169643 L185.455357,323.6875 C185.568453,323.574404 185.70238,323.517857 185.857143,323.517857 C186.011906,323.517857 186.145833,323.574404 186.258929,323.6875 L192.883929,330.3125 C192.997024,330.425596 193.053571,330.559523 193.053571,330.714286 C193.053571,330.869048 192.997024,331.002976 192.883929,331.116071 Z" id="chevron-right---FontAwesome"></path>
        </g>
    </g>
</svg>